<svg width="53.697" height="22.688" version="1.1" viewBox="0 0 53.697 22.688" xmlns="http://www.w3.org/2000/svg">
 <g transform="translate(-.58789 -.58563)">
  <path d="m27.037 0.58594a26.849 11.344 0 0 0-26.449 11.344 26.849 11.344 0 0 0 26.848 11.344 26.849 11.344 0 0 0 26.85-11.344 26.849 11.344 0 0 0-26.85-11.344 26.849 11.344 0 0 0-0.39844 0zm0.43945 4.084a21.373 6.1054 0 0 1 0.02734 0 21.373 6.1054 0 0 1 21.373 6.1055 21.373 6.1054 0 0 1-21.373 6.1055 21.373 6.1054 0 0 1-21.373-6.1055 21.373 6.1054 0 0 1 21.346-6.1055z"/>
 </g>
</svg>
