<svg width="39.533" height="33.656" version="1.1" viewBox="0 0 39.533 33.656" xmlns="http://www.w3.org/2000/svg">
 <g transform="translate(-222.38 -31.641)">
  <path d="m261.91 31.641s-12.995 3.795-12.623 3.9316c0.37219 0.1366 2.2656 2.6992 2.2656 2.6992l-2.6016 2.1836c-2.1704-2.1549-7.7745-7.4968-17.4-3.2441l-3.7812-0.48242-0.52539 2.5137 3.6875 0.51172 7.707 9.1836-4.5566 3.8223-4.5274 0.2793-7.1777 6.0234 5.6035 0.53516-0.45118 5.6992 7.2246-6.0625 1.0606-4.4082 4.5566-3.8242 7.7949 9.291 0.0866 3.2988h2.1738l0.20047-3.6465c4.6978-5.706 3.5952-11.485 0.16406-17.295l2.6016-2.1836 2.4531 2.9219zm-24.615 6.0742c3.2834-0.06068 7.5669 1.1638 9.0957 4.7441l-6.0762 5.0664-7.0371-8.5449c0.43828-0.73006 2.0475-1.2292 4.0176-1.2656zm11.242 6.4199c4.1144 5.782 2.8941 10.158 0.43945 14.146l-6.5586-8.6465z"/>
 </g>
</svg>
