<svg width="38.379" height="42.382" version="1.1" viewBox="0 0 38.379 42.382" xmlns="http://www.w3.org/2000/svg">
 <g transform="translate(-417.67 -25.063)">
  <path d="m451.42 28.533a8.0593 2.785 40 0 0-7.965-3.0477 8.0593 2.785 40 0 0 4.3845 7.3148 8.0593 2.785 40 0 0 7.9635 3.0464 8.0593 2.785 40 0 0-4.383-7.3135zm-1.4404 1.0299a5.2605 1.0581 40 0 1 0.0674 0.05646 5.2605 1.0581 40 0 1 3.3503 4.1931 5.2605 1.0581 40 0 1-4.7099-2.5727 5.2605 1.0581 40 0 1-3.35-4.1903 5.2605 1.0581 40 0 1 4.6423 2.5135z"/>
  <path d="m443.43 28.31-9.4138 10.056c3.0338 4.4669 6.9162 7.2091 11.066 9.021l8.4454-10.837c-3.3757-1.2494-6.7477-3.0456-10.097-8.2395z"/>
  <path d="m433.03 39.331-11.088 12.073c3.0338 4.4669 8.5526 8.4942 12.702 10.306l9.685-13.285c-3.1893-1.3209-7.9496-3.8998-11.299-9.0937z"/>
  <path d="m434.03 62.639-2.4727 3.7976c-3.2282 1.0821-5.8374 0.15202-8.1091-1.356 0.15698 1.7668-1.0258 2.3443-3.9017 1.419-0.6746-1.6786-2.4844-3.4865 0.90132-3.9365-1.2598-1.0645-2.2842-2.3951-2.2769-7.3589l2.8714-2.9979c3.2632 4.3236 7.3424 8.0026 12.988 10.433z"/>
 </g>
</svg>
