<svg width="43.41" height="42.397" version="1.1" viewBox="0 0 43.41 42.397" xmlns="http://www.w3.org/2000/svg">
 <g transform="translate(-386.87 -25.895)">
  <path d="m395.97 63.279c0.38037 0.23666 0.19293 0.78062 2.538-0.04599l10.574-15.568c0.4616-0.52666 2.3496-1.2495 3.273-0.84599l2.2434-2.6669c-3.5902-2.738-4.2455-6.9132-3.2495-9.2311 3.1165-2.0386 4.3151-2.7129 6.4405-2.288 2.6782 0.53539 2.4593 0.24434 4.0677 3.3382 0.24601 1.191-0.1368 1.8941-2.8616 2.7728-1.5553 0.05218-2.1307-1.8066-2.7408-3.2571-1.0875-0.90577-1.9619-0.09574-2.3204 0.42174-0.56627 1.3577-0.40804 2.6134-0.30924 3.5518 0.50442 3.2824 1.8968 4.7245 3.2965 6.3279 3.0578 1.1009 6.8882 0.63984 9.0339 0.10616 2.0566-2.5953 4.3158-5.3163 4.3233-9.2321-1.276-3.119-3.2633-6.3894-7.19-9.0182-10.593-3.116-12.861-1.307-14.658-0.36807-2.4266 2.2824-1.4808 4.0171-1.8654 6.6622 0.47885 1.5663 2.5717 5.5156-0.57223 10.228l-10.032 16.559c-0.43335 0.9258-0.54628 1.7967 9e-3 2.5533z"/>
  <path d="m415.77 46.011c-6.268 0.71375-7.5365 5.9454-7.2178 10.499 0.0547 0.78211-2.0568-0.66876-1.4989-5.0284-0.57262 2.1283-1.5414 4.5476-1.5862 6.2883 0.14808 4.9455 2.3545 9.764 3.8301 9.8594 4.3987 1.2802 6.2439 0.39152 7.6384-0.05871 7.0805-1.9006 4.992-9.1972 4.2094-12.353-1.3679-1.7395-2.236-2.6411-0.95807-5.8436-1.4378-0.07399-3.6338 1.2783-4.5143 3.0731-1.506-1.1814-1.3098-3.1931 0.0975-6.4366z"/>
  <path d="m396.84 50.304 8.4129-8.266c0.39412-1.5163 1.942-1.3715 1.2628-4.8426 0.22165-1.12-1.3402-3.9586-4.2288-4.3268-3.2367 0.16072-4.321 0.85932-5.3952 2.2923-1.1364-0.9962-1.9528-2.4361-3.8947-2.3155-3.236-0.32749-5.1868 0.98661-5.9513 3.8158-0.37651 1.7456-0.25555 3.1193 1.0967 5.0219z"/>
 </g>
</svg>
