<svg width="38.527" height="28.313" version="1.1" viewBox="0 0 38.527 28.313" xmlns="http://www.w3.org/2000/svg">
 <g transform="translate(-29.305 -32.299)">
  <path d="m39.319 33.295c-0.37552-0.42792-1.7321 4.083-2.5982 6.1245l3.1948-1.6975c-0.19887-1.4757-7.58e-4 -4.6498-0.59661-4.427z"/>
  <path d="m43.07 33.504c-1.4213 0.74327-2.0296 3.376-3.0449 5.0645-1.3194 0.75393-2.4121 1.1317-4.1035 2.498-1.8724 3.4508-2.6451 7.1223-5.7129 10.135-1.3419 1.5761-1.0567 5.1829-0.01367 6.041 0.94166 0.65202 2.1828 0.48907 3.6465 0.10156 1.6396-2.9317 3.4974-6.0291 7.2218-4.8667l3.4351-6.9547 2.013 2.8214 0.35582-0.23659c-1.5603-1.1102-3.0553-5.6501-1.8929-8.988-0.5461-0.37525-1.093-0.41176-1.6387-0.19922-0.08646-1.822 0.04938-5.4211-0.26563-5.416zm-3.9492 9.1504c0.31716 0.02517 0.66424 0.08335 1.043 0.17578l-4.0938 3.2402c0.06442-2.1791 0.83065-3.5922 3.0508-3.416z"/>
  <path d="m50.479 32.299-2.0469 0.0332-0.05469 3.4688c-5.8288 6.0697-1.4537 11.3-0.53711 12.562l-1.3809 1.248-1.8301-2.4414-4.2695 8.4531 8.6016-2.4805-1.3145-2.0547 1.3672-1.3477c3.1693 2.7428 7.418 4.7899 12.541 1.9473l3.1914-0.0293 0.01758-2.0859-2.9844-0.09961-5.0684-5.666 3.1035-2.5137 3-0.09961 5.0176-4.4121-3.8672-0.02344 0.38476-3.752-5.4922 4.4238-0.0957 2.5156-2.9902 2.1836-5.2227-6.4062zm-1.1777 5.7812 4.1152 5.3496-4.2051 3.5996c-2.2438-2.0125-2.1672-7.8601 0.08984-8.9492zm5.3828 7.0234 4.7363 5.0352c-2.2571 1.0891-5.5865 1.1662-8.7012-1.5059z"/>
  <path d="m52.701 43.384-3.4012 3.0654c-1.6587-1.5208-1.7785-6.963-0.10998-7.786z"/>
  <path d="m54.715 45.797-3.4319 2.9126c1.7335 1.4324 5.6107 2.2116 7.2578 1.0859z"/>
  <path d="m49.23 50.513-0.82467 0.88277 1.4397 1.9817-5.5314 1.7072c0.54175 1.5892 0.24212 3.5728-0.7977 5.5244 9.8405 0.12817 12.216-3.9285 16.289-7.0336-4.1569 0.53687-8.0137-0.31842-10.575-3.0625z"/>
  <path d="m61.482 48.575 4.1158 0.0171-3.5371-2.8537c1.093-0.54956 1.7442-1.4389 2.4567-2.2811-1.6467 0.17112-3.2935 0.28122-4.9402 0.07339 0.94103-0.3451 1.694-0.8874 2.3342-1.548-0.72005-0.0247-1.3996 0.25384-2.2949 0.21642l-2.2967 1.7196z"/>
  <path d="m52.774 38.005 3.0146 3.7456 2.6038-2.007 0.03256-1.6019z"/>
 </g>
</svg>
