<svg width="35.386" height="42.704" version="1.1" viewBox="0 0 35.386 42.704" xmlns="http://www.w3.org/2000/svg">
 <g transform="translate(-420.38 -25.787)">
  <path d="m442.8 25.787c-4.966 0.0065-8.9883 4.034-8.9883 9 0 4.9706 4.0294 9 9 9s9-4.0294 9-9-4.0294-9-9-9zm4.6395 3.7192c2.3141 2.3307 3.4421 5.387 1.1105 9.732-2.1279 2.0325-5.6081 2.3414-7.7988 1.377-2.1236-0.60576-3.8848-1.7774-4.3203-5.0098-0.45529-3.5903 1.3691-5.0646 3.8379-4.2715 3.0089 1.8529 1.0159 3.7379 0.43164 4.7578 0.11064 3.1252 2.6703 3.4658 4.6797 2.9297 4.7214-1.7511 3.4432-5.953 2.0594-9.5152z"/>
  <path d="m434.19 38.857c-1.1635 3.5881-1.4171 7.5121-0.43199 10.279 3.2148 0.11038 7.6271-2.322 8.6844-4.739-3.4949-0.57067-6.2045-1.3127-8.2524-5.5404z"/>
  <path d="m431.24 44.345c-1.2077 3.0132-1.1587 4.4265-0.61579 6.8177l-6.6849 8.4401c-2.9334-0.0043-3.1355 2.0561-3.5556 3.7237 0.3699 3.492 2.4103 4.2086 4.3061 5.1654 3.0637-0.19134 4.2368-2.007 4.8306-4.802 0.17537-3.0544-1.3504-3.5215-2.9617-3.7703l5.785-7.2092c2.786-0.12224 5.5246-1.1063 6.7363-3.7148-2.3479 0.32571-3.937-0.53141-4.4413-1.0448-0.70385-0.23517-2.738-1.8426-3.3988-3.6058z"/>
  <circle cx="448.72" cy="48.568" r="1.75"/>
  <circle cx="428.09" cy="28.945" r="1.75"/>
  <circle cx="424.66" cy="47.215" r="1.5"/>
  <circle cx="454.02" cy="46.132" r="1.75"/>
  <circle cx="434.01" cy="63.791" r="1"/>
  <circle cx="427.05" cy="42.029" r="2.5"/>
  <circle cx="437.03" cy="58.848" r="2.5"/>
  <circle cx="426.86" cy="33.898" r="3.5"/>
  <circle cx="441.37" cy="56.52" r="3.5"/>
 </g>
</svg>
