<svg width="33.993" height="42.368" version="1.1" viewBox="0 0 33.993 42.368" xmlns="http://www.w3.org/2000/svg">
 <g transform="translate(-223.74 -26.914)">
  <path d="m243.44 26.922c-0.9109-0.05197-2.0361 0.15354-3.4043 0.65625-6.5791 6.3359-11.07 15.048-15.84 23.441-0.5721 4.5116-1.4675 9.1896 3.332 11.5 4.6254 1.3084 7.4087-1.7627 9.9844-5.3242l9.3789-21.725c0.17116-1.5402 1.6676-4.7628-1.3262-7.6562-0.51655-0.53034-1.2141-0.8406-2.125-0.89258zm-0.54102 3.4258c0.76136 0.06988 1.0198 0.85832 0.8086 2.3184-0.60644 5.9129-2.5228 7.8228-3.8789 11.447l-4.2285 0.45312-2.1621-4.2871c1.7887-3.4903 4.2919-6.5867 7.541-9.2734 0.82496-0.48431 1.4631-0.70013 1.9199-0.6582zm10.719 0.04687c-4.1615 0.12677-4.3737 2.509-5.2832 3.7637-3.1681 7.9591-6.5334 14.668-9.4766 24.055-0.49026 4.3678-0.49778 8.5107 3.8047 10.654 5.1054 1.5195 8.051-1.2678 10.201-6.2676 2.648-7.5866 5.3826-18.933 4.7773-28.047-1.3482-2.5847-2.5455-4.248-4.0234-4.1582zm-0.73047 3.8965c0.61036-0.02568 1.1051 0.63353 1.4766 2.0195 0.42848 4.1942 0.039 8.1589-1.1367 11.9l-4.4004 1.8613-2.8418-3.6172c1.5781-3.5335 1.5532-6.2416 5.2715-10.879 0.61206-0.83173 1.1561-1.2652 1.6308-1.2852zm-20.91 8.1309 1.3652 2.8223-3.2324 0.39062c0.15173-0.74064 0.84459-2.0783 1.8672-3.2129zm7.5684 4.0449c-0.18702 1.1925-0.6142 2.1942-1.3027 2.8184l-1.873-2.6035zm-5.5117 1.2598 2.5117 3.6387c-2.2316 2.2218-7.3232-1.3761-7.0586-3.5234zm10.6 1.1484 2 2.2383-3.252 0.60352c0.0124-0.92924 0.48158-1.9126 1.252-2.8418zm8.8438 1.6406c0.24672 1.394-0.0764 2.3227-0.72852 3.791l-2.7383-2.3848zm-5.3477 2.8965 3.6992 3.3457c-2.576 1.9407-8.4852 0.10899-8.8125-2.5801z"/>
 </g>
</svg>
