<svg width="30.435" height="51.461" version="1.1" viewBox="0 0 30.435 51.461" xmlns="http://www.w3.org/2000/svg">
 <g transform="translate(-1.6387 -.23633)">
  <path d="m9.6445 0.23633c-6.022 4.278-6.319 10.985-5.4668 18.18-1.6851 0.87612-1.8216-1.2924-2.5391-2.3184 0.06343 3.0106 1.1469 7.4606 3.0137 8.5078 0 0 5.9891 16.131 6.6523 24.076 0.90353 1.1338 1.4115 2.8263 2.9844 3.0156v-3.8086h5.0742v3.8086c0.97445-0.94045 2.2481-1.7002 2.6016-3.0156 2.4395-9.2509 4.2719-16.794 7.8633-24.727 0.82835 0.19634 2.813-5.3737 2.0898-8.3535-0.63668 1.1364-0.88852 2.7181-2.125 2.8086 1.8965-5.9323-0.28617-12.01-4.9434-18.174-0.44966 5.889 0.75603 12.276-3.8184 16.924-0.87048-3.8976-2.225-7.79-4.3379-11.674-1.7069 3.943-3.0856 7.8501-3.7109 11.674-3.1401-3.3285-5.6703-7.3519-3.3379-16.924zm-2.166 28.326c3.6294 0.11924 4.7228 2.6118 4.9883 5.8809zm19.174 0-4.9863 5.8809c0.26552-3.2691 1.357-5.7616 4.9863-5.8809z"/>
 </g>
</svg>
