<svg width="33" height="33" version="1.1" viewBox="0 0 33 33" xmlns="http://www.w3.org/2000/svg">
 <g transform="translate(-420,-31)">
  <path d="m429 31-9 9v15l9 9h15l9-9v-15l-9-9zm2 2.5h11l8.5 8.5v11l-8.5 7.5h-11l-8.5-7.5v-11z"/>
  <path d="m432 35-8 8v9l7.5 7h10l7.5-6.5v-10l-8-7.5zm4.4238 4.6543a7.8462 7.8462 0 0 1 0.0762 0 7.8462 7.8462 0 0 1 7.8457 7.8457 7.8462 7.8462 0 0 1-7.8457 7.8457 7.8462 7.8462 0 0 1-7.8457-7.8457 7.8462 7.8462 0 0 1 7.7695-7.8457z"/>
  <circle cx="436.5" cy="47.5" r="6" fill-rule="evenodd"/>
 </g>
</svg>
