<svg width="33.587" height="38.193" version="1.1" viewBox="0 0 33.587 38.193" xmlns="http://www.w3.org/2000/svg">
 <g transform="translate(-127.68 -27.231)">
  <path d="m128.06 63.175c0.38037 0.23666 0.19293 0.78062 2.538-0.04599l11.434-15.216c0.34375-0.71507 3.0218-2.2266 5.6774-1.0017l-0.17814-0.98922c-4.5184-2.4137-5.0887-8.7875-4.0927-11.105 1.696-2.4393 3.8011-3.1035 6.4405-2.288 3.3657 1.0399 3.2383 0.75834 4.0677 3.3382 0.24601 1.191-0.1368 1.8941-2.8616 2.7728-1.5553 0.05218-2.1307-1.8066-2.7408-3.2571-1.0875-0.90577-1.9619-0.09574-2.3204 0.42174-0.56627 1.3577-0.40804 2.6134-0.30924 3.5518 0.50442 3.2824 1.7554 3.006 3.1551 4.6093 3.1188 0.69996 6.8154 1.0341 9.3913 0.52802 1.3368-2.2479 1.9304-3.7378 3.0092-7.9846-1.276-3.119-3.5938-5.8195-6.0918-8.969-7.8983-0.2842-10.137-0.50713-13.356-0.03717-1.9365 3.2944-2.591 5.367-2.6924 7.541 0.47885 1.5663 2.0968 4.3058-1.0471 9.0185l-10.032 16.559c-0.43335 0.9258-0.54628 1.7967 9e-3 2.5533z"/>
  <path d="m151.42 65.424 8.4129-8.266c0.39412-1.5163 1.942-1.3715 1.2628-4.8426 0.22165-1.12-1.3402-3.9586-4.2288-4.3268-3.2367 0.16072-4.321 0.85932-5.3952 2.2923-1.1364-0.9962-1.9528-2.4361-3.8947-2.3155-3.236-0.32749-5.1868 0.98661-5.9513 3.8158-0.37651 1.7456-0.25555 3.1193 1.0967 5.0219z"/>
 </g>
</svg>
