<svg width="37.256" height="48.031" version="1.1" viewBox="0 0 37.256 48.031" xmlns="http://www.w3.org/2000/svg">
 <g transform="translate(-1.5557 -.91893)">
  <path d="m20.183 0.91893c-5.5675 4.052-11.739 7.2585-18.627 9.4648 3.4911 27.013 10.99 33.148 18.627 38.566 9.1815-5.3168 16.825-14.55 18.629-38.652-6.8461-2.1031-13.344-4.7682-18.629-9.3789zm-0.20508 3.9004c4.4614 3.8923 9.9472 6.1406 15.727 7.916-1.5228 20.347-7.9757 28.143-15.727 32.631-6.4474-4.5738-12.777-9.7531-15.725-32.557 5.8146-1.8626 11.025-4.5696 15.725-7.9902z"/>
  <path d="m15.42 14.295c1.6976 0.41021 2.4242-0.28618 2.1215-2.1556l-2.7616-3.4482c-1.8452 0.079559-2.562 0.69079-2.7638 1.5447z"/>
  <path d="m24.457 14.295c-1.6976 0.41021-2.4242-0.28618-2.1215-2.1556l2.5945-2.8676c1.8452 0.079559 2.562 0.69079 2.7638 1.5447z"/>
  <path d="m18.432 6.6541v3.9503c1.2259 1.2634 2.3661 0.7941 3.4902 0v-3.9503l-1.8383-1.1846z"/>
  <path d="m14.855 26.132c0.49605-4.6187 0.24311-8.669 7.5101-11.674-0.47248 2.352-1.8795 5.8508 0.5376 7.9881 0.99426-0.99782 2.4053-2.7796 3.155-7.2741l3.8463 7.165c0.45788 2.4182 1.2999 6.4437 0.37938 9.473-1.549 2.8015-4.8353 4.9147-8.7245 6.1407-5.71-0.43834-7.5701-1.9332-9.1492-4.6733-1.325-2.3179-1.5553-10.229-1.2957-15.521 0.72642 2.783 1.9646 6.3946 3.741 8.3754z"/>
  <path d="m30.586 11.505c-0.92962 1.6843-1.606 2.3894-2.9014 3.4683 3.6139 4.0493 3.5677 8.3338 4.3802 12.459 1.1559-4.4296 2.625-8.7072 2.6745-13.674z"/>
  <path d="m10.425 11.377c4.3227 0.82287 3.9407 4.5369 4.1042 8.9206-0.12074 0.08229-2.8011-6.1415-4.6349-3.9428 0 0 0.59733 11.98-0.036252 15.196-1.3105-4.4296-4.4565-12.686-4.1116-17.653z"/>
  <path d="m12.006 36.122c2.6898 2.6393 3.8095 5.7346 8.452 7.8069 3.7407-1.9665 6.0019-5.0832 8.5994-7.9385-2.7744 1.3635-4.4998 4.0906-8.5994 3.7312-3.2598-0.27267-5.7537-2.1503-8.452-3.5997z"/>
 </g>
</svg>
