<svg width="33.587" height="40.498" version="1.1" viewBox="0 0 33.587 40.498" xmlns="http://www.w3.org/2000/svg">
 <g transform="translate(-75.539 -23.737)">
  <path d="m75.916 61.121c0.38037 0.23666 0.19293 0.78062 2.538-0.04599l11.434-15.216c0.4616-0.52666 2.1296-0.48224 3.053-0.07873l1.6656-2.8201c-3.5902-2.738-4.3081-7.8795-3.3121-10.197 3.1165-2.0386 4.3151-2.7129 6.4405-2.288 2.6782 0.53539 2.4593 0.24434 4.0677 3.3382 0.24601 1.191-0.1368 1.8941-2.8617 2.7728-1.5553 0.05218-2.1307-1.8066-2.7408-3.2571-1.0875-0.90577-1.9619-0.09574-2.3204 0.42174-0.56627 1.3577-0.40804 2.6134-0.30924 3.5518 0.50442 3.2824 1.7554 3.006 3.1551 4.6093 3.0578 1.1009 7.0652 0.6334 9.3913 0.52802 2.0566-2.5953 3.0017-4.0688 3.0092-7.9846-1.276-3.119-2.1652-6.3403-6.0918-8.969-10.593-3.116-12.861-1.307-14.658-0.36807-2.4266 2.2824-1.4808 4.0171-1.8654 6.6622 0.47885 1.5663 2.5717 5.5156-0.57223 10.228l-10.032 16.559c-0.43335 0.9258-0.54628 1.7967 9e-3 2.5533z"/>
  <path d="m99.725 42.963c-6.268 0.71375-8.1389 4.6195-6.6861 8.947 0.22434 0.66823-1.5757-1.643-1.4301-5.958-1.3708 1.4887-2.7132 5.6253-2.0415 7.9402 0.14808 4.9455 2.7909 9.584 4.2665 9.6794 4.3987 1.2802 6.2439 0.39152 7.6384-0.05871 7.0805-1.9006 5.47-9.431 4.6874-12.586-1.5434-1.9396-2.5504-2.4058-2.5406-6.4122-1.4378-0.07399-2.5292 2.0807-3.4097 3.8755-1.8143-1.4676-1.1731-3.6253 1.75-5.462z"/>
 </g>
</svg>
