<svg width="33.502" height="39.863" version="1.1" viewBox="0 0 33.502 39.863" xmlns="http://www.w3.org/2000/svg">
 <g transform="translate(-224.27 -26.083)">
  <path d="m228.63 43.777c-2.959-0.11804-4.4936 1.2453-4.3502 3.9782-0.0668 1.1809 6.3915 8.0523 7.7577 8.2324 1.9228 0.64152 5.5951-0.47456 5.435-3.8143-0.47249-1.5069-8.0197-8.591-8.8425-8.3963z"/>
  <path d="m233.59 37.003c-2.6528-0.75291-6.5499-0.40542-4.7333 5.4208 5.1565 4.2807 7.7444 6.6758 9.8143 8.8709 1.9228 0.64152 5.3048 0.17092 5.1448-3.1689-0.47249-1.5069-9.403-11.318-10.226-11.123z"/>
  <path d="m240.07 30.994c-2.959-0.11804-4.6805 2.2398-4.5371 4.9728-0.0668 1.1809 4.1217 5.7203 5.4878 5.9005 1.9228 0.64152 5.3014 0.36528 5.1414-2.9745-0.47249-1.5069-5.2694-8.0934-6.0922-7.8987z"/>
  <path d="m246.39 26.089c-2.959-0.11804-4.9825 1.5184-4.638 4.4765 0.91764 1.4716 5.4659 8.3618 6.8321 8.542 1.9228 0.64152 4.484-0.99689 4.324-4.3367-0.47249-1.5069-5.6952-8.8766-6.518-8.6819z"/>
  <path d="m226.31 52.885c3.4847 4.1546 3.0367 7.9483 13.141 12.71 3.1049 0.88773 4.7247-0.15045 6.8665-0.51181 5.7697-2.5848 10.71-8.5233 10.893-9.8425 1.7667-3.7958-1.0733-13.127-3.3362-19.097-0.59002 3.0472-3.726 5.3905-6.7435 3.2917 0.0669 3.4926-3.9638 4.5018-5.9795 3.6482 2.5442 2.4294 3.59 4.566 4.5522 6.6861 3.7422 3.2009 2.7088-3.4831 6.6746-2.6013-2.6013 4.0575-5.0841 5.3704-8.4523 6.8588-1.5921-0.85973-3.3948-1.1862-5.7502-0.11259-0.78102 3.4859-5.7861 3.4402-5.7861 3.4402-2.3448-0.43212-4.1635-3.1016-6.0798-4.47z"/>
 </g>
</svg>
