<svg width="36.132" height="35.251" version="1.1" viewBox="0 0 36.132 35.251" xmlns="http://www.w3.org/2000/svg">
 <g transform="translate(-1.3685 -2.5)">
  <path d="m26.103 37.751c4.4343-6.1416 10.309-11.741 0.89661-18.751 0.095694-6.8926 3.382-9.1997 10.5-6-6.5811-9.9111-13.94-5.9295-21.5 0.16628-5.639-0.82802-3.6885-6.5045-3-10.666-13.163 6.6518-6.8267 14.994-1 20.5-0.21842 4.485-3.7939 5.8418-10.632 5.323 8.9743 8.6532 13.565 4.7335 18.632-0.32299 7.8219-0.54668 6.4324 4.9101 6.1034 9.7512zm-3.5824-16.818a3.6814 3.6814 0 0 1-3.6814 3.6814 3.6814 3.6814 0 0 1-3.6814-3.6814 3.6814 3.6814 0 0 1 3.6814-3.6814 3.6814 3.6814 0 0 1 3.6814 3.6814z"/>
 </g>
</svg>
