<svg width="31.051" height="48.192" version="1.1" viewBox="0 0 31.051 48.192" xmlns="http://www.w3.org/2000/svg">
 <g transform="translate(-129.1 -22.246)">
  <path d="m146.87 34.877c-5.6407 5.1974-13.541 8.7451-16.787 15.691-1.9457 4.6575-1.2199 8.3572 4.2832 10.221 4.0246-1.1174 6.9038-3.0449 9.2559-6.3301 1.4133-1.6499 0.13022-2.9366-0.74805-3.668l-2.8691 1.3301-0.11718-0.22461 5.8711-3.0684c1.1249-1.7634 1.0496-3.76-0.39063-6.0234 3.073-1.0286 2.0445-4.6316 1.502-7.9277zm-10.84 14.004c-0.30822 0.15622-0.61019 0.32514-0.90234 0.50977-1.0885 0.67689-2.0974 1.664-2.3633 2.9629-0.21746 1.0493 7e-3 2.1015 0.34375 3.1055 0.52087-0.38322 1.2222-0.5398 1.8555-0.54492 0.90098 0.0075 1.9867 0.31482 2.418 1.1855 0.3135 0.641-0.12426 1.3729-0.70118 1.6836-1.0771 0.6159-2.5213 0.60103-3.5625-0.08594-0.35765-0.22593-0.61363-0.62952-0.65234-1.0488-0.24721-0.69828-0.46082-1.4106-0.57812-2.1426-0.20079-1.2027-0.11525-2.546 0.66992-3.5352 0.86289-1.0935 2.2154-1.6015 3.4726-2.0898zm-1.0566 6.8125c-0.23483 2.42e-4 -0.4694 0.03572-0.6914 0.11328-0.46067 0.12071-0.95344 0.63813-0.66407 1.125 0.36542 0.55728 1.1278 0.67485 1.7422 0.57422 0.48861-0.07381 1.1266-0.41979 1.0449-0.99805-0.15849-0.60303-0.87694-0.81175-1.4316-0.81445z"/>
  <path d="m134.51 61.325c4.4728-1.2487 7.4438-3.5492 9.0366-5.5106 1.4588-1.7963-3.402 8.7953-6.1573 10.681 2.998-2.5191 7.3345-10.029 6.5867-11.092 0.0169-0.68711 5.9188-2.391 7.5102-2.7114 1.2154 0.25135 2.5517 0.54462 2.2173 4.0997-1.8066 1.7808-3.8541 1.8587-5.7841 2.7669 1.3156-0.70489 3.162-1.3161 3.5194-0.89988 1.1346 0.95776 0.0452 2.5064-0.54852 4.0282-0.0268 0.06883-0.6415 0.79983-0.0773 0.20627-0.60711 0.56279-1.3223 1.0406-2.7835 0.93163 0.53474 0.20872 0.73417 0.51128 0.74108 0.86774 0.0153 0.78998 0.18414 2.9109-1.2368 2.729-2.317-0.61233-4.5282-0.97338-5.8445 0.79144-1.5921 3.4824-6.2615 2.1592-7.1861 0.84232-1.1016-2.256-0.74215-4.5916 7e-3 -7.7308z"/>
  <path d="m147.26 34.772c3.966-3.7026 8.032-7.5018 10.296-12.526 1.4506 6.6346 0.34535 8.8623 0.22987 10.305-2.0785 4.6803-9.1265 10.574-11.442 10.564 2.7447-3.0544 1.8239-5.3678 0.91632-8.3434z"/>
  <path d="m146.42 43.668c2.1514 5.0839-1.1135 5.8823-2.8455 6.9196 1.3839 1.2987 1.8981 2.336 1.0525 3.6347 2.0838-0.73149 3.9601-1.5058 5.9458-1.9916 2.2142-0.27045 3.6212 0.79563 3.7421 2.2593 2.4635-0.29861 3.7294-2.3367 4.0487-4.9913 0.27627-2.0892 0.70628-4.3976-2.6839-4.0565 1.4423-1.3554 2.9049-2.2808 4.2879-4.8864 0.20022-2.2125 0.68892-5.4289-1.5607-7.7294-3.247 4.7613-6.7645 9.3707-11.987 10.842z"/>
 </g>
</svg>
