<svg width="42.471" height="48.77" version="1.1" viewBox="0 0 42.471 48.77" xmlns="http://www.w3.org/2000/svg">
 <g transform="translate(-252.85 -64.904)">
  <path d="m292.25 64.904c-11.377 9.4454-32.803 23.554-34.053 28.385-3.7726 0.76711-3.2145-0.58096-4.541-1.002l0.0234 3.043c0.86825 0.31143 1.5984 0.86203 2.7383 0.70703-1.137 5.9305-7.4708 14.648 0.0723 17.637 2.2126-1.6166 4.0659-1.6012 5.9355-3.8887-0.51657-0.47682 0.67205-1.8254 0.33008-2.3164-1.7445-2.5049-2.3052-5.0011-0.42383-7.707 2.0514 0.38802 3.4338 0.31811 4.9082 0.34961 1.3083-0.36071 2.205-2.302 3.2441-3.6934 0.41944-1.3131 0.52178-2.6263-8e-3 -3.9395 5.8289-7.8564 16.506-15.677 24.844-23.516-0.4874-1.1986-0.78499-2.3426-3.0703-4.0586zm-24.467 27.67c0.18121 0.01067 0.28829 0.06982 0.27929 0.17188 0.0895 1.1927 0.76159 2.408-0.55859 3.5469l-2.3125-2.3652c0.82688-0.9815 2.0482-1.3855 2.5918-1.3535zm-4.1582 2.502 2.4961 2.6602-3.5274-0.08594c-0.3831-1.9807 0.45137-2.0822 1.0312-2.5742z"/>
 </g>
</svg>
