<svg width="37.256" height="48.031" version="1.1" viewBox="0 0 37.256 48.031" xmlns="http://www.w3.org/2000/svg">
 <g transform="translate(-1.4473 -1.2598)">
  <path d="m20.074 1.2598c-5.5675 4.052-11.739 7.2585-18.627 9.4648 3.4911 27.013 10.99 33.148 18.627 38.566 9.1815-5.3168 16.825-14.55 18.629-38.652-6.8461-2.1031-13.344-4.7682-18.629-9.3789zm-0.20508 3.9004c4.4614 3.8923 9.9472 6.1406 15.727 7.916-1.5228 20.347-7.9757 28.143-15.727 32.631-6.4474-4.5738-12.777-9.7531-15.725-32.557 5.8146-1.8626 11.025-4.5696 15.725-7.9902z"/>
  <path d="m20.48 19.34c3.0979-3.6969 6.7142-5.5004 11.182 0 2.0156 5.4954-5.1254 11.741-11.274 19.822-4.9865-6.746-12.162-13.802-10.626-19.822 3.9914-5.3807 8.1309-2.7984 10.717 0z"/>
  <path d="m5.1458 15.958h7.3838c0.36774-0.87233 1.5043-1.3456-0.04224-3.2116h-5.677l-2.1055 0.94052z"/>
  <path d="m34.217 15.958h-7.3838c-0.36774-0.87233-1.5043-1.3456 0.04224-3.2116h5.677l2.1055 0.94052z"/>
  <path d="m15.311 14.635c1.6976 0.41021 2.4242-0.28618 2.1215-2.1556l-2.7616-3.4482c-1.8452 0.079559-2.562 0.69079-2.7638 1.5447z"/>
  <path d="m24.348 14.635c-1.6976 0.41021-2.4242-0.28618-2.1215-2.1556l2.5945-2.8676c1.8452 0.079559 2.562 0.69079 2.7638 1.5447z"/>
  <path d="m18.323 6.9949v3.9503c1.2259 1.2634 2.3661 0.7941 3.4902 0v-3.9503l-1.8383-1.1846z"/>
  <path d="m9.5232 29.024c1.2807 5.2156 5.8755 11.585 10.826 15.377 5.9199-5.0041 7.831-10.106 10.347-15.122l-10.347 12.094c-3.0519-2.8007-6.8088-7.7926-10.826-12.349z"/>
 </g>
</svg>
