<svg width="40.738" height="56.883" version="1.1" viewBox="0 0 40.738 56.883" xmlns="http://www.w3.org/2000/svg">
 <g transform="translate(-6.3387 -4.3925)">
  <path d="m11.322 8.6852c0.15618-3.5511 1.7055-3.376 4.3013-4.2927 2.9552 1.4288 5.5188 3.2935 6.6985 6.6985-0.50509 3.4967-1.5935 3.7279-4.3013 4.2927-3.3564-1.1761-5.2335-3.3664-6.6985-6.6985z" stop-color="#000000"/>
  <path d="m17.619 21.925c1.2341-2.8777 6.7952-6.9334 8.9146-6.5775 3.5975 1.2521 9.2163 10.382 10.043 13.884-0.50509 3.4967-4.1912 5.5743-6.899 6.1391-3.7222-0.24454-11.06-10.902-12.059-13.445z" stop-color="#000000"/>
  <ellipse transform="rotate(264.63)" cx="-17.255" cy="34.852" rx="3.0824" ry="7.4477" stop-color="#000000"/>
  <ellipse transform="matrix(.99562 .093535 .093535 -.99562 0 0)" cx="18.023" cy="-28.012" rx="3.0824" ry="8.2054" stop-color="#000000"/>
  <ellipse transform="rotate(84.633)" cx="39.197" cy="-6.1904" rx="2.2641" ry="3.4998" stop-color="#000000"/>
  <ellipse transform="matrix(-.99562 -.093535 -.093535 .99562 0 0)" cx="-45.448" cy="4.8119" rx="2.2641" ry="3.4998" stop-color="#000000"/>
  <ellipse transform="matrix(.99999 -.0032895 -.0032895 -.99999 0 0)" cx="36.13" cy="-38.681" rx="3.2995" ry="7.4866" stop-color="#000000"/>
  <ellipse transform="matrix(.99999 -.0032895 -.0032895 -.99999 0 0)" cx="28.111" cy="-41.631" rx="2.752" ry="6.0029" stop-color="#000000"/>
  <ellipse transform="matrix(-.78518 -.61926 -.61926 .78518 0 0)" cx="-58.114" cy="17.936" rx="2.9754" ry="5.7807" stop-color="#000000"/>
  <ellipse transform="matrix(-.54701 -.83712 -.83712 .54701 0 0)" cx="-56.381" cy="6.4919" rx="2.5502" ry="5.1421" stop-color="#000000"/>
  <ellipse transform="matrix(.76708 -.64155 -.64155 -.76708 0 0)" cx="-19.424" cy="-59.329" rx="2.0189" ry="3.963" stop-color="#000000"/>
  <ellipse transform="matrix(-.049066 -.9988 -.9988 .049066 0 0)" cx="-59.228" cy="-31.115" rx="2.3216" ry="2.2617" stop-color="#000000"/>
 </g>
</svg>
