<svg width="42.076" height="37.167" version="1.1" viewBox="0 0 42.076 37.167" xmlns="http://www.w3.org/2000/svg">
 <g transform="translate(-414.25 -29.695)">
  <path d="m443.05 29.695-8.7129 2.5762 1.4414 1.7207-2.1113 1.7715c-5.324-6.0673-12.204-2.2706-15.799-1.0883l0.43154 1.5286 1.4923-0.49018 5.7012 6.9092-3.248 2.7246-2.5488-0.14648-5.4492 4.5723 3.5664 0.6543 0.0254 3.625 5.4492-4.5723 0.62304-2.1465 3.248-2.7266 6.216 7.4009-0.59818 1.3784 1.4889 0.99787c3.1563-5.5468 4.6896-10.711 0.987-16.568l2.1914-1.8398 1.5547 1.8535zm-17.52 4.6309c2.9258-0.14118 5.2754 1.5054 6.5684 3.0312l-4.6719 3.8281-4.9961-6.0508c1.0854-0.51484 2.1244-0.76154 3.0996-0.80859zm8.2226 5.166c1.5587 2.1324 2.923 6.4788 0.51735 10.251l-5.3464-6.3393z"/>
  <path d="m455.77 59.707-5.035-3.679-3.7934 8.2048-3.5008-5.31-3.5035 5.0865-4.4216-7.0507-2.477 3.329-1.9165-9.3792-0.0995 7.9959c1.6774 4.8268 4.4668 5.5129 7.0244 7.0626 3.5977 1.4794 7.5149 0.9075 10.889-0.14382 2.9551-1.4577 5.6154-3.1682 6.8337-6.116z"/>
  <path d="m436.98 39.91c0.48786 1.8695 1.6432 1.7292 0.89173 7.0334 5.9608-2.4859 11.569-1.9364 16.122 5.9302l1.7788 6.8339 0.54924-13.967-4.3711 1.1321-2.0862-6.1623-2.9312 2.3353-3.3948-3.5536-2.9908 3.4657z"/>
  <path d="m454 52.399-6.925 0.0023c-2.5253-3.9375-5.7446-3.1523-7.3897 0.14797l-3.9528 0.10138-1.3819 2.2525-2.0012-1.4381 0.3744-0.58976-1.2851-0.02647-0.0763 2.7024h8.5465c2.1504 2.1708 3.3108 3.7729 7.144 0.09596l8.1052 0.08813z"/>
  <path d="m434.71 42.326c0.35612 2.1224 0.94213 4.4036-0.50412 6.014z"/>
 </g>
</svg>
