<svg width="42.001" height="51.338" version="1.1" viewBox="0 0 42.001 51.338" xmlns="http://www.w3.org/2000/svg">
 <g transform="translate(-.82882 -.66992)">
  <path d="m21.812 0.66992a6.5903 6.5903 0 0 0-6.5898 6.5898 6.5903 6.5903 0 0 0 6.5898 6.5918 6.5903 6.5903 0 0 0 6.5898-6.5918 6.5903 6.5903 0 0 0-6.5898-6.5898zm-0.03125 4.1211a2.1968 2.1968 0 0 1 2.1973 2.1953 2.1968 2.1968 0 0 1-2.1973 2.1973 2.1968 2.1968 0 0 1-2.1973-2.1973 2.1968 2.1968 0 0 1 2.1973-2.1953z" stop-color="#000000"/>
  <path d="m19.532 10.9v5.8524h-12.501v6.6082h12.501v21.709c-4.0769-0.06228-5.897-1.2781-8.3498-4.282l2.457-0.50472c-4.8175-3.2413-9.1564-7.0853-12.811-11.791 0.049339 6.7575 1.656 13.439 5.7943 16.547l0.4406-1.5391c7.1305 6.3855 10.392 7.8026 14.797 8.5068 7.2838 0.07227 11.779-3.7214 14.843-8.4446l0.10526-0.06222 0.1706 1.6544c4.7822-3.7935 5.9636-10.346 5.842-16.663-2.3185 5.1211-7.5652 8.7018-12.366 11.791l2.7498 0.50472c-2.0373 2.788-4.5945 4.6365-8.3709 4.282v-21.709h11.932v-6.6082h-11.932v-5.656z"/>
 </g>
</svg>
