<svg width="44.012" height="39.394" version="1.1" viewBox="0 0 44.012 39.394" xmlns="http://www.w3.org/2000/svg">
 <g transform="translate(-319.24 -26.45)">
  <path d="m340.59 29.617-4.5831 7.0807 4.2271 4.078-3.0681 6.2136 4.8078 4.5872-2.7009 6.6582 6.1439 4.7874 3.5767-7.378-5.2437-4.3189 3.154-5.6937-4.6312-4.8413 2.2253-3.1413 5.1321 1.8187 0.0579 6.8661 5.4317 1.4679-1.5696 7.4992 6.4488 4.2348 3.2553-7.613-5.6492-3.9251-0.3901-8.2983-6.0029-1.4513-0.43347-7.372-6.6692-2.2015-1.292 3.5111z"/>
  <path d="m335.82 26.57-16.582 35.386c0.77468 3.978 3.2756 3.9606 5.8125 3.8601l12.257-26.26-2.4871-2.5678 5.3966-8.3958c0.60809-2.5797-2.025-2.1811-4.3966-2.0229z"/>
 </g>
</svg>
