<svg width="42.634" height="35.851" version="1.1" viewBox="0 0 42.634 35.851" xmlns="http://www.w3.org/2000/svg">
 <g transform="translate(-318.63 -28.339)">
  <g>
   <circle cx="352.5" cy="37.029" r="3.5" stop-color="#000000"/>
   <path d="m352.48 28.339c-1.1323 3.8837-0.73498 5.1376-2.9143 6.823h5.8286c-2.5464-1.5953-1.977-4.1461-2.9143-6.823z"/>
   <path d="m352.54 45.68c-1.1323-3.8837-0.73498-5.1376-2.9143-6.823h5.8286c-2.5464 1.5953-1.977 4.1461-2.9143 6.823z"/>
   <path d="m343.64 37.026c3.8837-1.1323 5.1376-0.73498 6.823-2.9143v5.8286c-1.5953-2.5464-4.1461-1.977-6.823-2.9143z"/>
   <path d="m361.26 37.026c-3.8837 1.1323-5.1376 0.73498-6.823 2.9143v-5.8286c1.5953 2.5464 4.1461 1.977 6.823 2.9143z"/>
  </g>
  <ellipse cx="340.18" cy="38.396" rx="3.3277" ry="2.1887" stop-color="#000000"/>
  <ellipse cx="334.43" cy="41.861" rx="3.3277" ry="2.1887" stop-color="#000000"/>
  <ellipse cx="344.97" cy="41.37" rx="3.3277" ry="2.1887" stop-color="#000000"/>
  <ellipse cx="337.34" cy="46.925" rx="3.3277" ry="2.1887" stop-color="#000000"/>
  <ellipse cx="332.99" cy="45.948" rx="3.3277" ry="2.1887" stop-color="#000000"/>
  <ellipse cx="342.77" cy="45.594" rx="3.3277" ry="2.1887" stop-color="#000000"/>
  <ellipse cx="349.18" cy="44.44" rx="3.3277" ry="2.1887" stop-color="#000000"/>
  <ellipse cx="340.05" cy="42.873" rx="3.3277" ry="2.1887" stop-color="#000000"/>
  <path d="m342.5 32.014-21.824 3.6777c-1.7253 1.8866-4.0268 16.749 5.7455 12.801l-0.015 9.0156 11.113 6.1211 16.504-7.7812-2e-3 -10.558-7.3651-5.3948zm0.68306 1.4219 3.4731 6.4589 7.3651 5.3948-0.95603 0.38696-14.364 5.6093-9.2391-4.8348c-0.25723-0.34851-7.2145-9.0222-7.2145-9.0222zm-21.39 6.2636 4.9805 6.4355c-1.7853 1.5828-4.2343 1.2771-5.0449 0.06055-1.2041-1.8071-1.0378-5.5933-0.36704-6.9492zm31.272 5.9771-0.23124 9.4448-14.59 6.3672-4e-3 -10.202 4.628-1.6792 0.0989 4.9257 7.0449-2.4121-0.0102-5.117zm-24.673 1.8784 8.043 4.4082v8.9902l-8.043-4.5312zm19.719 0.10352v3.3066l-3.7402 1.1152v-3.123z" stroke="#000" stroke-width="1px"/>
 </g>
</svg>
