<svg width="43.078" height="42.69" version="1.1" viewBox="0 0 43.078 42.69" xmlns="http://www.w3.org/2000/svg">
 <g transform="translate(-287.51 -39.072)">
  <path d="m309.23 39.076c-1.1924-0.06565-2.4152 0.60529-3.666 2.168v6.9746c-1.0987 0.0093-2.1914 0.02842-3.8867-0.86133-0.42383-0.99716-0.88946-1.9692-2.6055-2.2012-2.6959 3.4968-5.6495 6.7303-8.4746 10.096l-1.5664-1.3555c-1.5948 0.62522-1.5742 1.497-1.5059 2.375l5.5137 4.5977c1.0849-0.24647 1.773-0.90346 2.0176-2.0215l9.0586 4.8477c0.34446 1.622 0.34243 3.3866 2.8906 4.1016l0.0566 13.922 3.8945 0.04297 0.17578-14.133c2.4894-0.05591 2.7003-1.9939 2.9082-3.9336l10.043-4.9512c0.19395 1.3762 1.0746 1.6917 1.9297 2.0469l4.5664-4.5195c-0.058-0.96341-0.2547-1.8775-1.5918-2.375 0 0-2.048 1.3995-1.8945 1.3555 0.15351-0.04399-8.1562-10.621-8.1562-10.621-1.9797 0.33431-2.226 1.4311-2.4746 2.5273-0.90005 0.51723-1.871 0.99411-3.7461 0.94336v-6.7715c-1.131-1.3866-2.2939-2.1883-3.4863-2.2539zm-8.6328 11.918 6.1406 3.0664-0.11133 6.0801c-1.4773 0.08899-2.5755 0.38425-2.9453 1.0762l-8.0156-3.9258zm17.293 0.09375 4.9316 6.2969-8.0156 3.9238c-0.36977-0.69192-1.468-0.98718-2.9453-1.0762l-0.11132-6.0781z"/>
 </g>
</svg>
