<svg width="47.163" height="52.83" version="1.1" viewBox="0 0 47.163 52.83" xmlns="http://www.w3.org/2000/svg">
 <g transform="translate(-3.1432 2.3743)">
  <path d="m45.517-2.3743c2.7255 0.71511 3.9518 2.6881 4.7896 4.7896l-4.8062 4.8062c-3.603-1.0467-3.7524-3.0398-4.7896-4.7896z" style="font-variation-settings:normal"/>
  <path d="m6.8613 42.405c0.96036 1.8927 2.308 2.7991 4.1949 4.2604l-3.5119 3.7901c-3.3656-0.17265-4.0074-1.7669-4.4011-4.3356z"/>
  <path d="m16.25 24.361c2.301 8.0268 8.4946 10.297 12.217 10.496-4.4203 4.608-8.0186 8.5598-10.786 13.375-8.6515-0.69449-10.919-6.7883-12.753-12.731z"/>
  <path d="m20.399 19.55c2.0686 5.8528 5.9053 9.2915 12.214 10.61 0.01334 1.1397 0.09786 3.0765-3.1949 3.7467-10.049-1.5604-10.298-5.7709-12.217-10.496 0.25876-2.1517-0.61585-4.2268 3.1974-3.8605z"/>
  <path d="m24.71 14.681c1.8808 6.1808 5.3021 9.6804 11.903 10.488 0.01334 1.1397 0.25081 3.3618-3.042 4.032-8.7639-1.8736-10.183-6.0408-12.214-10.61 0.5315-1.8613 0.25242-3.5174 3.3528-3.9102z"/>
  <g>
   <path d="m39.202 0.059664c0.20376 4.8677 3.8233 9.0335 8.9043 8.5035 1.6474-0.17187 2.5044 1.7003 1.9118 2.3219l-12.549 13.429c-5.7305 0.83927-12.155-7.5957-11.903-10.488l9.782-13.301c1.2152-0.66546 2.9927-1.7138 3.8546-0.4652z" style="font-variation-settings:normal"/>
   <path d="m35.559 28.943c3.867 2.2803 4.305 4.6624 4.8957 7.3545 0.80357 3.6624 1.4031 9.582 0.23319 7.6708l1.8448 2.8451c-2.8268 2.7861-4.9488 0.96105-7.2348 0.20908l2.688-3.1875c0.44816-4.3684 2.2036-8.5701-4.3373-13.83z" style="font-variation-settings:normal"/>
   <path d="m35.279 31.531c1.9164 9.1827 0.01792 10.778-3.214 13.447l-1.0937 3.1723c-4.0172 1.1375-5.3126-3.7974-3.2357-5.1334l3.691 0.10648c3.3045-4.3055 2.3406-0.76313 2.2225-13.119z" style="font-variation-settings:normal"/>
  </g>
 </g>
</svg>
