<svg width="33.587" height="40.667" version="1.1" viewBox="0 0 33.587 40.667" xmlns="http://www.w3.org/2000/svg">
 <g transform="translate(-321.71 -25.862)">
  <path d="m322.08 63.246c0.38037 0.23666 0.19293 0.78062 2.538-0.04599l11.434-15.216c0.4616-0.52666 2.1296-0.48224 3.053-0.07873l1.6656-2.8201c-3.5902-2.738-4.3081-7.8795-3.3121-10.197 1.696-2.4393 3.8011-3.1035 6.4405-2.288 3.3657 1.0399 3.2383 0.75834 4.0677 3.3382 0.24601 1.191-0.1368 1.8941-2.8616 2.7728-1.5553 0.05218-2.1307-1.8066-2.7408-3.2571-1.0875-0.90577-1.9619-0.09574-2.3204 0.42174-0.56627 1.3577-0.40804 2.6134-0.30924 3.5518 0.50442 3.2824 1.7554 3.006 3.1551 4.6093 3.0814 1.395 7.1723 1.9709 9.3913 0.52802 2.5872-1.9819 3.1831-3.8591 3.0092-7.9846-1.276-3.119-2.1652-6.3403-6.0918-8.969-10.593-3.116-12.861-1.307-14.658-0.36807-2.4466 2.2854-2.343 4.1479-1.8654 6.6622 0.47885 1.5663 2.5717 5.5156-0.57223 10.228l-10.032 16.559c-0.43335 0.9258-0.54628 1.7967 9e-3 2.5533z"/>
  <path d="m344.77 45.823-8.6495 10.101 8.6495 10.604 8.0603-10.604z"/>
 </g>
</svg>
