<?xml version="1.0" encoding="UTF-8" standalone="no"?>
<svg
   xmlns:dc="http://purl.org/dc/elements/1.1/"
   xmlns:cc="http://creativecommons.org/ns#"
   xmlns:rdf="http://www.w3.org/1999/02/22-rdf-syntax-ns#"
   xmlns:svg="http://www.w3.org/2000/svg"
   xmlns="http://www.w3.org/2000/svg"
   xmlns:sodipodi="http://sodipodi.sourceforge.net/DTD/sodipodi-0.dtd"
   xmlns:inkscape="http://www.inkscape.org/namespaces/inkscape"
   inkscape:version="1.0 (4035a4fb49, 2020-05-01)"
   sodipodi:docname="archer.svg"
   viewBox="0 0 39.533199 33.65625"
   height="33.65625"
   width="39.533199"
   id="svg3068"
   version="1.1">
  <metadata
     id="metadata3074">
    <rdf:RDF>
      <cc:Work
         rdf:about="">
        <dc:format>image/svg+xml</dc:format>
        <dc:type
           rdf:resource="http://purl.org/dc/dcmitype/StillImage" />
        <dc:title></dc:title>
      </cc:Work>
    </rdf:RDF>
  </metadata>
  <defs
     id="defs3072" />
  <sodipodi:namedview
     inkscape:current-layer="g3076"
     inkscape:window-maximized="1"
     inkscape:window-y="0"
     inkscape:window-x="0"
     inkscape:cy="16.799682"
     inkscape:cx="40.60162"
     inkscape:zoom="14.639175"
     showgrid="false"
     id="namedview3070"
     inkscape:window-height="1407"
     inkscape:window-width="2554"
     inkscape:pageshadow="2"
     inkscape:pageopacity="0"
     guidetolerance="10"
     gridtolerance="10"
     objecttolerance="10"
     borderopacity="1"
     bordercolor="#666666"
     pagecolor="#ffffff" />
  <g
     transform="translate(-222.375,-31.640625)"
     id="g3076"
     inkscape:label="Image"
     inkscape:groupmode="layer">
    <path
       sodipodi:nodetypes="cscccccccccccccccccccccccscccscccc"
       d="m 261.9082,31.640625 c 0,0 -12.99525,3.795031 -12.62304,3.931641 0.37219,0.136604 2.26562,2.699218 2.26562,2.699218 l -2.60156,2.183594 c -2.17043,-2.154942 -7.77446,-7.496772 -17.40039,-3.24414 l -3.78125,-0.482422 -0.52539,2.513672 3.6875,0.511718 7.70703,9.183594 -4.55664,3.822266 -4.52735,0.279296 -7.17773,6.023438 5.60352,0.535156 -0.45118,5.699219 7.22461,-6.0625 1.06055,-4.408203 4.55664,-3.824219 7.79492,9.291016 0.0866,3.298828 h 2.17383 l 0.20047,-3.646485 c 4.69784,-5.706004 3.59524,-11.484789 0.16406,-17.294921 l 2.60156,-2.183594 2.45313,2.921875 z m -24.61523,6.074219 c 3.28345,-0.06068 7.5669,1.163803 9.0957,4.74414 l -6.07617,5.066407 -7.03711,-8.544922 c 0.43828,-0.730055 2.04751,-1.22922 4.01758,-1.265625 z m 11.24219,6.419922 c 4.11436,5.78203 2.89406,10.158225 0.43945,14.146484 l -6.55859,-8.646484 z"
       style="fill:#000000;stroke:none;stroke-width:1px;stroke-linecap:butt;stroke-linejoin:miter;stroke-opacity:1"
       id="path3082-0" />
  </g>
</svg>
