<?xml version="1.0" encoding="UTF-8" standalone="no"?>
<svg
   xmlns:dc="http://purl.org/dc/elements/1.1/"
   xmlns:cc="http://creativecommons.org/ns#"
   xmlns:rdf="http://www.w3.org/1999/02/22-rdf-syntax-ns#"
   xmlns:svg="http://www.w3.org/2000/svg"
   xmlns="http://www.w3.org/2000/svg"
   xmlns:sodipodi="http://sodipodi.sourceforge.net/DTD/sodipodi-0.dtd"
   xmlns:inkscape="http://www.inkscape.org/namespaces/inkscape"
   inkscape:version="1.0 (4035a4fb49, 2020-05-01)"
   sodipodi:docname="pirate.svg"
   viewBox="0 0 42.471237 48.769531"
   height="48.769531"
   width="42.471237"
   id="svg1224"
   version="1.1">
  <metadata
     id="metadata1230">
    <rdf:RDF>
      <cc:Work
         rdf:about="">
        <dc:format>image/svg+xml</dc:format>
        <dc:type
           rdf:resource="http://purl.org/dc/dcmitype/StillImage" />
        <dc:title></dc:title>
      </cc:Work>
    </rdf:RDF>
  </metadata>
  <defs
     id="defs1228" />
  <sodipodi:namedview
     inkscape:current-layer="g1232"
     inkscape:window-maximized="1"
     inkscape:window-y="0"
     inkscape:window-x="0"
     inkscape:cy="23.176059"
     inkscape:cx="21.392605"
     inkscape:zoom="14.276267"
     showgrid="false"
     id="namedview1226"
     inkscape:window-height="1043"
     inkscape:window-width="1914"
     inkscape:pageshadow="2"
     inkscape:pageopacity="0"
     guidetolerance="10"
     gridtolerance="10"
     objecttolerance="10"
     borderopacity="1"
     bordercolor="#666666"
     pagecolor="#ffffff" />
  <g
     transform="translate(-252.85103,-64.904297)"
     id="g1232"
     inkscape:label="Image"
     inkscape:groupmode="layer">
    <path
       d="m 292.25195,64.904297 c -11.37666,9.445402 -32.80278,23.554412 -34.05273,28.384765 -3.77261,0.767109 -3.21452,-0.580962 -4.54102,-1.001953 l 0.0234,3.042969 c 0.86825,0.311431 1.59844,0.862028 2.73828,0.707031 -1.13699,5.930461 -7.47082,14.648311 0.0723,17.636721 2.21255,-1.6166 4.06594,-1.60125 5.93554,-3.88867 -0.51657,-0.47682 0.67205,-1.82537 0.33008,-2.31641 -1.74449,-2.50493 -2.30517,-5.00112 -0.42383,-7.707031 2.05139,0.388021 3.43381,0.318111 4.90821,0.349611 1.30827,-0.360706 2.20495,-2.302043 3.24414,-3.693361 0.41944,-1.313128 0.52178,-2.626325 -0.008,-3.939453 5.82893,-7.85638 16.50634,-15.67746 24.84375,-23.515625 -0.4874,-1.198567 -0.78499,-2.342574 -3.07032,-4.058594 z m -24.46679,27.669922 c 0.18121,0.01067 0.28829,0.06982 0.27929,0.171875 0.0895,1.192697 0.76159,2.407982 -0.55859,3.546875 l -2.3125,-2.365235 c 0.82688,-0.981495 2.04816,-1.385529 2.5918,-1.353515 z m -4.15821,2.501953 2.4961,2.660156 -3.52735,-0.08594 c -0.3831,-1.980729 0.45137,-2.082155 1.03125,-2.574219 z"
       style="opacity:1;fill:#000000;stroke:none;stroke-width:1px;stroke-linecap:butt;stroke-linejoin:miter;stroke-opacity:1"
       id="path1236" />
  </g>
</svg>
