<?xml version="1.0" encoding="UTF-8" standalone="no"?>
<svg
   xmlns:dc="http://purl.org/dc/elements/1.1/"
   xmlns:cc="http://creativecommons.org/ns#"
   xmlns:rdf="http://www.w3.org/1999/02/22-rdf-syntax-ns#"
   xmlns:svg="http://www.w3.org/2000/svg"
   xmlns="http://www.w3.org/2000/svg"
   xmlns:sodipodi="http://sodipodi.sourceforge.net/DTD/sodipodi-0.dtd"
   xmlns:inkscape="http://www.inkscape.org/namespaces/inkscape"
   inkscape:version="1.0 (4035a4fb49, 2020-05-01)"
   sodipodi:docname="puppet.svg"
   viewBox="0 0 40.737606 56.882954"
   height="56.882954"
   width="40.737606"
   id="svg1049"
   version="1.1">
  <metadata
     id="metadata1055">
    <rdf:RDF>
      <cc:Work
         rdf:about="">
        <dc:format>image/svg+xml</dc:format>
        <dc:type
           rdf:resource="http://purl.org/dc/dcmitype/StillImage" />
        <dc:title></dc:title>
      </cc:Work>
    </rdf:RDF>
  </metadata>
  <defs
     id="defs1053" />
  <sodipodi:namedview
     inkscape:current-layer="g1057"
     inkscape:window-maximized="1"
     inkscape:window-y="0"
     inkscape:window-x="0"
     inkscape:cy="28.274141"
     inkscape:cx="16.327922"
     inkscape:zoom="18.887754"
     showgrid="false"
     id="namedview1051"
     inkscape:window-height="1407"
     inkscape:window-width="2554"
     inkscape:pageshadow="2"
     inkscape:pageopacity="0"
     guidetolerance="10"
     gridtolerance="10"
     objecttolerance="10"
     borderopacity="1"
     bordercolor="#666666"
     pagecolor="#ffffff" />
  <g
     transform="translate(-6.3387443,-4.3925269)"
     id="g1057"
     inkscape:label="Image"
     inkscape:groupmode="layer">
    <path
       sodipodi:nodetypes="cccccc"
       d="m 11.322139,8.6852314 c 0.156183,-3.5510893 1.705532,-3.3759606 4.301317,-4.2927045 2.955203,1.4287916 5.518795,3.2934781 6.698521,6.6985211 -0.505093,3.496738 -1.593496,3.727893 -4.301324,4.292698 -3.356378,-1.176142 -5.233537,-3.366372 -6.698522,-6.6985217 z"
       style="opacity:1;fill:#000000;stroke:none;stroke-width:1.33417;stop-color:#000000"
       id="rect1061" />
    <path
       id="rect1061-3"
       style="opacity:1;fill:#000000;stroke:none;stroke-width:1.33417;stop-color:#000000"
       d="m 17.619402,21.92527 c 1.234117,-2.877749 6.795239,-6.933422 8.914579,-6.577535 3.59747,1.252109 9.216302,10.381778 10.043358,13.883837 C 36.072246,32.72831 32.386168,34.805836 29.67834,35.37064 25.956113,35.126099 18.617901,24.468924 17.619402,21.92527 Z"
       sodipodi:nodetypes="ccccc" />
    <ellipse
       transform="rotate(-95.367021)"
       ry="7.4476738"
       rx="3.0823801"
       cy="34.851856"
       cx="-17.254892"
       id="path1094"
       style="opacity:1;fill:#000000;stroke:none;stroke-width:1.33417;stop-color:#000000" />
    <ellipse
       style="opacity:1;fill:#000000;stroke:none;stroke-width:1.33417;stop-color:#000000"
       id="path1094-7"
       cx="18.023451"
       cy="-28.011803"
       rx="3.0823801"
       ry="8.2054367"
       transform="matrix(0.99561597,0.09353526,0.09353526,-0.99561597,0,0)" />
    <ellipse
       cx="39.197067"
       cy="-6.1904206"
       rx="2.2640679"
       ry="3.4997582"
       transform="rotate(84.63298)"
       id="path1094-7-5"
       style="opacity:1;fill:#000000;stroke:none;stroke-width:1.33417;stop-color:#000000" />
    <ellipse
       style="opacity:1;fill:#000000;stroke:none;stroke-width:1.33417;stop-color:#000000"
       id="path1094-7-5-3"
       transform="matrix(-0.99561597,-0.09353524,-0.09353524,0.99561597,0,0)"
       ry="3.4997582"
       rx="2.2640679"
       cy="4.8118687"
       cx="-45.447887" />
    <ellipse
       transform="matrix(0.99999459,-0.00328954,-0.00328954,-0.99999459,0,0)"
       ry="7.4865985"
       rx="3.2995367"
       cy="-38.680725"
       cx="36.130451"
       id="path1094-7-56"
       style="opacity:1;fill:#000000;stroke:none;stroke-width:1.33417;stop-color:#000000" />
    <ellipse
       style="opacity:1;fill:#000000;stroke:none;stroke-width:1.33417;stop-color:#000000"
       id="path1094-7-56-2"
       cx="28.110638"
       cy="-41.63102"
       rx="2.7519548"
       ry="6.0028806"
       transform="matrix(0.99999459,-0.00328954,-0.00328954,-0.99999459,0,0)" />
    <ellipse
       transform="matrix(-0.78518301,-0.61926379,-0.61926379,0.78518301,0,0)"
       ry="5.780652"
       rx="2.9754274"
       cy="17.935946"
       cx="-58.114269"
       id="path1094-7-56-2-9"
       style="opacity:1;fill:#000000;stroke:none;stroke-width:1.33417;stop-color:#000000" />
    <ellipse
       style="opacity:1;fill:#000000;stroke:none;stroke-width:1.33417;stop-color:#000000"
       id="path1094-7-56-2-9-1"
       cx="-56.380863"
       cy="6.4918766"
       rx="2.5501997"
       ry="5.1420865"
       transform="matrix(-0.54701252,-0.83712443,-0.83712443,0.54701252,0,0)" />
    <ellipse
       transform="matrix(0.76708386,-0.64154685,-0.64154685,-0.76708386,0,0)"
       ry="3.9630082"
       rx="2.0189326"
       cy="-59.328545"
       cx="-19.423555"
       id="path1094-7-56-2-9-1-2"
       style="opacity:1;fill:#000000;stroke:none;stroke-width:1.33417;stop-color:#000000" />
    <ellipse
       style="opacity:1;fill:#000000;stroke:none;stroke-width:1.33417;stop-color:#000000"
       id="path1094-7-56-2-9-1-2-7"
       cx="-59.227634"
       cy="-31.115129"
       rx="2.3216479"
       ry="2.2617145"
       transform="matrix(-0.04906562,-0.99879556,-0.99879556,0.04906562,0,0)" />
  </g>
</svg>
