<?xml version="1.0" encoding="UTF-8" standalone="no"?>
<svg
   xmlns:dc="http://purl.org/dc/elements/1.1/"
   xmlns:cc="http://creativecommons.org/ns#"
   xmlns:rdf="http://www.w3.org/1999/02/22-rdf-syntax-ns#"
   xmlns:svg="http://www.w3.org/2000/svg"
   xmlns="http://www.w3.org/2000/svg"
   xmlns:sodipodi="http://sodipodi.sourceforge.net/DTD/sodipodi-0.dtd"
   xmlns:inkscape="http://www.inkscape.org/namespaces/inkscape"
   inkscape:version="1.0 (4035a4fb49, 2020-05-01)"
   sodipodi:docname="ranger.svg"
   viewBox="0 0 42.076149 37.167187"
   height="37.167187"
   width="42.076149"
   id="svg2080"
   version="1.1">
  <metadata
     id="metadata2086">
    <rdf:RDF>
      <cc:Work
         rdf:about="">
        <dc:format>image/svg+xml</dc:format>
        <dc:type
           rdf:resource="http://purl.org/dc/dcmitype/StillImage" />
        <dc:title></dc:title>
      </cc:Work>
    </rdf:RDF>
  </metadata>
  <defs
     id="defs2084" />
  <sodipodi:namedview
     inkscape:current-layer="g2088"
     inkscape:window-maximized="1"
     inkscape:window-y="0"
     inkscape:window-x="0"
     inkscape:cy="21.299584"
     inkscape:cx="15.8215"
     inkscape:zoom="41.40584"
     showgrid="false"
     id="namedview2082"
     inkscape:window-height="1407"
     inkscape:window-width="2554"
     inkscape:pageshadow="2"
     inkscape:pageopacity="0"
     guidetolerance="10"
     gridtolerance="10"
     objecttolerance="10"
     borderopacity="1"
     bordercolor="#666666"
     pagecolor="#ffffff" />
  <g
     transform="translate(-414.24621,-29.695312)"
     id="g2088"
     inkscape:label="Image"
     inkscape:groupmode="layer">
    <path
       sodipodi:nodetypes="cccccccccccccccccccccccscccscccc"
       d="m 443.04895,29.695312 -8.71289,2.576172 1.4414,1.720703 -2.11133,1.771484 c -5.32398,-6.067286 -12.20389,-2.270629 -15.79887,-1.088303 l 0.43154,1.528614 1.49234,-0.490183 5.70117,6.909247 -3.24805,2.72461 -2.54883,-0.146485 -5.44922,4.572266 3.56641,0.654297 0.0254,3.625 5.44922,-4.572266 0.62304,-2.146484 3.24805,-2.726563 6.21603,7.400862 -0.59818,1.378415 1.4889,0.997873 c 3.15629,-5.546836 4.68956,-10.710951 0.987,-16.568165 l 2.19141,-1.839844 1.55468,1.853515 z m -17.51953,4.630859 c 2.92575,-0.141176 5.27543,1.505443 6.56835,3.03125 l -4.67187,3.828125 -4.99609,-6.050781 c 1.08545,-0.514843 2.12435,-0.761535 3.09961,-0.808594 z m 8.22265,5.166016 c 1.55874,2.132429 2.92305,6.478844 0.51735,10.250997 l -5.34645,-6.339306 z"
       style="fill:#000000;stroke:none;stroke-width:1px;stroke-linecap:butt;stroke-linejoin:miter;stroke-opacity:1"
       id="path2092" />
    <path
       sodipodi:nodetypes="cccccccccccc"
       id="path2117"
       d="m 455.77312,59.707086 -5.03499,-3.67904 -3.79343,8.204769 -3.50079,-5.309966 -3.5035,5.086458 -4.42156,-7.050675 -2.47701,3.329001 -1.91648,-9.379177 -0.0995,7.995923 c 1.67739,4.826784 4.46683,5.512901 7.02435,7.062565 3.59773,1.479378 7.51489,0.907505 10.88921,-0.143824 2.95507,-1.457694 5.61545,-3.168226 6.8337,-6.116034 z"
       style="fill:#000000;stroke:none;stroke-width:1px;stroke-linecap:butt;stroke-linejoin:miter;stroke-opacity:1" />
    <path
       sodipodi:nodetypes="ccccccccccc"
       id="path2119"
       d="m 436.981,39.909553 c 0.48786,1.869534 1.64324,1.72922 0.89173,7.033441 5.96076,-2.485906 11.56884,-1.936401 16.12164,5.930155 l 1.77875,6.833937 0.54924,-13.966635 -4.37114,1.132087 -2.08623,-6.16229 -2.93117,2.33533 -3.39484,-3.553555 -2.99079,3.465716 z"
       style="fill:#000000;stroke:none;stroke-width:1px;stroke-linecap:butt;stroke-linejoin:miter;stroke-opacity:1" />
    <path
       sodipodi:nodetypes="ccccccccccccc"
       id="path2121"
       d="m 453.99868,52.398811 -6.92502,0.0023 c -2.52534,-3.937541 -5.74465,-3.152286 -7.38974,0.147969 l -3.95283,0.101382 -1.38193,2.252471 -2.00116,-1.4381 0.3744,-0.58976 -1.2851,-0.02647 -0.0763,2.702442 h 8.5465 c 2.15039,2.170809 3.31084,3.772926 7.14396,0.09596 l 8.10523,0.08813 z"
       style="fill:#000000;stroke:none;stroke-width:1px;stroke-linecap:butt;stroke-linejoin:miter;stroke-opacity:1" />
    <path
       sodipodi:nodetypes="ccc"
       id="path2123"
       d="m 434.71206,42.326252 c 0.35612,2.122367 0.94213,4.403568 -0.50412,6.013969 z"
       style="fill:#000000;stroke:none;stroke-width:1px;stroke-linecap:butt;stroke-linejoin:miter;stroke-opacity:1" />
  </g>
</svg>
