<?xml version="1.0" encoding="UTF-8" standalone="no"?>
<svg
   xmlns:dc="http://purl.org/dc/elements/1.1/"
   xmlns:cc="http://creativecommons.org/ns#"
   xmlns:rdf="http://www.w3.org/1999/02/22-rdf-syntax-ns#"
   xmlns:svg="http://www.w3.org/2000/svg"
   xmlns="http://www.w3.org/2000/svg"
   xmlns:sodipodi="http://sodipodi.sourceforge.net/DTD/sodipodi-0.dtd"
   xmlns:inkscape="http://www.inkscape.org/namespaces/inkscape"
   inkscape:version="1.0 (4035a4fb49, 2020-05-01)"
   sodipodi:docname="sailor.svg"
   viewBox="0 0 42.001064 51.33778"
   height="51.33778"
   width="42.001064"
   id="svg1341"
   version="1.1">
  <metadata
     id="metadata1347">
    <rdf:RDF>
      <cc:Work
         rdf:about="">
        <dc:format>image/svg+xml</dc:format>
        <dc:type
           rdf:resource="http://purl.org/dc/dcmitype/StillImage" />
        <dc:title></dc:title>
      </cc:Work>
    </rdf:RDF>
  </metadata>
  <defs
     id="defs1345" />
  <sodipodi:namedview
     inkscape:current-layer="g1349"
     inkscape:window-maximized="1"
     inkscape:window-y="0"
     inkscape:window-x="0"
     inkscape:cy="26.663412"
     inkscape:cx="22.504515"
     inkscape:zoom="22.57317"
     showgrid="false"
     id="namedview1343"
     inkscape:window-height="1407"
     inkscape:window-width="2554"
     inkscape:pageshadow="2"
     inkscape:pageopacity="0"
     guidetolerance="10"
     gridtolerance="10"
     objecttolerance="10"
     borderopacity="1"
     bordercolor="#666666"
     pagecolor="#ffffff" />
  <g
     transform="translate(-0.82881916,-0.66992188)"
     id="g1349"
     inkscape:label="Image"
     inkscape:groupmode="layer">
    <path
       d="M 21.8125,0.66992188 A 6.5903044,6.5903053 0 0 0 15.222656,7.2597656 6.5903044,6.5903053 0 0 0 21.8125,13.851562 6.5903044,6.5903053 0 0 0 28.402344,7.2597656 6.5903044,6.5903053 0 0 0 21.8125,0.66992188 Z M 21.78125,4.7910156 A 2.1967692,2.1967673 0 0 1 23.978516,6.9863281 2.1967692,2.1967673 0 0 1 21.78125,9.1835938 2.1967692,2.1967673 0 0 1 19.583984,6.9863281 2.1967692,2.1967673 0 0 1 21.78125,4.7910156 Z"
       style="opacity:1;fill:#000000;stroke:none;stroke-width:1.81939;stop-color:#000000"
       id="path1353" />
    <path
       sodipodi:nodetypes="ccccccccccccccccccccccccc"
       id="path1373"
       d="m 19.532499,10.900284 v 5.852408 H 7.0314237 V 23.36089 H 19.532499 v 21.708662 c -4.076853,-0.06228 -5.897042,-1.278125 -8.349776,-4.281955 l 2.457048,-0.504715 C 8.8222979,37.041609 4.4834117,33.197567 0.82881916,28.491676 0.87815822,35.249133 2.4848153,41.930873 6.6231446,45.038992 l 0.4406001,-1.539111 c 7.1305113,6.385493 10.3923113,7.802605 14.7965603,8.506807 7.283805,0.07227 11.779454,-3.721367 14.843441,-8.44459 l 0.105256,-0.06222 0.170605,1.654431 c 4.782165,-3.793482 5.963583,-10.345999 5.841987,-16.662636 -2.318473,5.121051 -7.565249,8.701788 -12.365527,11.791206 l 2.749787,0.504715 c -2.037286,2.788024 -4.594534,4.636468 -8.370896,4.281955 V 23.36089 H 36.767381 V 16.752692 H 24.834958 v -5.656028 z"
       style="opacity:1;fill:#000000;stroke:none;stroke-width:1px;stroke-linecap:butt;stroke-linejoin:miter;stroke-opacity:1" />
  </g>
</svg>
